{
  "accessors": [
    {
      "bufferView": 2,
      "componentType": 5126,
      "count": 42,
      "max": [
        2.6868948936462402,
        0.22706647217273712,
        0.36810970306396484
      ],
      "min": [
        -2.677629232406616,
        -0.5997663140296936,
        -0.38458243012428284
      ],
      "type": "VEC3"
    },
    {
      "bufferView": 2,
      "byteOffset": 504,
      "componentType": 5126,
      "count": 42,
      "max": [
        1.0,
        2.933866562671028e-05,
        0.6971877813339233
      ],
      "min": [
        -0.9819873571395874,
        -1.5338093817263143e-06,
        -1.0
      ],
      "type": "VEC3"
    },
    {
      "bufferView": 1,
      "componentType": 5126,
      "count": 42,
      "max": [
        0.9999939799308777,
        1.0
      ],
      "min": [
        8.541549334495357e-08,
        -4.468127556833679e-08
      ],
      "type": "VEC2"
    },
    {
      "bufferView": 1,
      "byteOffset": 336,
      "componentType": 5126,
      "count": 42,
      "max": [
        0.9999939799308777,
        1.0
      ],
      "min": [
        8.541549334495357e-08,
        -4.468127556833679e-08
      ],
      "type": "VEC2"
    },
    {
      "bufferView": 0,
      "componentType": 5125,
      "count": 90,
      "type": "SCALAR"
    },
    {
      "bufferView": 2,
      "byteOffset": 1008,
      "componentType": 5126,
      "count": 3712,
      "max": [
        2.455451488494873,
        3.1392040252685547,
        1.310689926147461
      ],
      "min": [
        -2.455451488494873,
        -1.2541593313217163,
        -1.310689926147461
      ],
      "type": "VEC3"
    },
    {
      "bufferView": 2,
      "byteOffset": 45552,
      "componentType": 5126,
      "count": 3712,
      "max": [
        0.9999876022338867,
        1.0,
        0.9999679923057556
      ],
      "min": [
        -0.9999876022338867,
        -1.0,
        -0.9999679923057556
      ],
      "type": "VEC3"
    },
    {
      "bufferView": 3,
      "componentType": 5126,
      "count": 3712,
      "max": [
        0.9999861121177673,
        0.9443433284759521,
        0.999031662940979,
        1.0
      ],
      "min": [
        -0.9999861121177673,
        -0.9999895095825195,
        -0.999031662940979,
        -1.0
      ],
      "type": "VEC4"
    },
    {
      "bufferView": 1,
      "byteOffset": 672,
      "componentType": 5126,
      "count": 3712,
      "max": [
        0.9840375185012817,
        0.9898288249969482
      ],
      "min": [
        0.01925787515938282,
        0.029394343495368958
      ],
      "type": "VEC2"
    },
    {
      "bufferView": 1,
      "byteOffset": 30368,
      "componentType": 5126,
      "count": 3712,
      "max": [
        0.9840375185012817,
        0.9898288249969482
      ],
      "min": [
        0.01925787515938282,
        0.029394343495368958
      ],
      "type": "VEC2"
    },
    {
      "bufferView": 1,
      "byteOffset": 60064,
      "componentType": 5126,
      "count": 3712,
      "max": [
        0.9840375185012817,
        0.9898288249969482
      ],
      "min": [
        0.01925787515938282,
        0.029394343495368958
      ],
      "type": "VEC2"
    },
    {
      "bufferView": 1,
      "byteOffset": 89760,
      "componentType": 5126,
      "count": 3712,
      "max": [
        0.9840375185012817,
        0.9898288249969482
      ],
      "min": [
        0.01925787515938282,
        0.029394343495368958
      ],
      "type": "VEC2"
    },
    {
      "bufferView": 1,
      "byteOffset": 119456,
      "componentType": 5126,
      "count": 3712,
      "max": [
        0.9840375185012817,
        0.9898288249969482
      ],
      "min": [
        0.01925787515938282,
        0.029394343495368958
      ],
      "type": "VEC2"
    },
    {
      "bufferView": 0,
      "byteOffset": 360,
      "componentType": 5125,
      "count": 17064,
      "type": "SCALAR"
    },
    {
      "bufferView": 2,
      "byteOffset": 90096,
      "componentType": 5126,
      "count": 1053,
      "max": [
        2.1297528743743896,
        2.639575958251953,
        0.16274811327457428
      ],
      "min": [
        -2.1619319915771484,
        -0.6195277571678162,
        -0.16477791965007782
      ],
      "type": "VEC3"
    },
    {
      "bufferView": 2,
      "byteOffset": 102732,
      "componentType": 5126,
      "count": 1053,
      "max": [
        0.9998831152915955,
        0.9991646409034729,
        0.9998424649238586
      ],
      "min": [
        -0.9999029040336609,
        -0.999992847442627,
        -0.9999286532402039
      ],
      "type": "VEC3"
    },
    {
      "bufferView": 3,
      "byteOffset": 59392,
      "componentType": 5126,
      "count": 1053,
      "max": [
        0.9996855854988098,
        0.9926882386207581,
        0.9999937415122986,
        1.0
      ],
      "min": [
        -0.9999868273735046,
        -0.9944939017295837,
        -0.9999052286148071,
        1.0
      ],
      "type": "VEC4"
    },
    {
      "bufferView": 1,
      "byteOffset": 149152,
      "componentType": 5126,
      "count": 1053,
      "max": [
        0.9933277368545532,
        0.9799512624740601
      ],
      "min": [
        0.004044483881443739,
        0.013893199153244495
      ],
      "type": "VEC2"
    },
    {
      "bufferView": 1,
      "byteOffset": 157576,
      "componentType": 5126,
      "count": 1053,
      "max": [
        0.9933277368545532,
        0.9799512624740601
      ],
      "min": [
        0.004044483881443739,
        0.013893199153244495
      ],
      "type": "VEC2"
    },
    {
      "bufferView": 0,
      "byteOffset": 68616,
      "componentType": 5125,
      "count": 4608,
      "type": "SCALAR"
    }
  ],
  "asset": {
    "extras": {
      "author": "WIsEman_Tavern (https://sketchfab.com/WIsEman_Tavern)",
      "license": "CC-BY-4.0 (http://creativecommons.org/licenses/by/4.0/)",
      "source": "https://sketchfab.com/3d-models/fantasy-candel-e23c068d341140cfbf3ff1fa6aeed1fb",
      "title": "Fantasy Candel"
    },
    "generator": "Sketchfab-15.36.0",
    "version": "2.0"
  },
  "bufferViews": [
    {
      "buffer": 0,
      "byteLength": 87048,
      "name": "floatBufferViews",
      "target": 34963
    },
    {
      "buffer": 0,
      "byteLength": 166000,
      "byteOffset": 87048,
      "byteStride": 8,
      "name": "floatBufferViews",
      "target": 34962
    },
    {
      "buffer": 0,
      "byteLength": 115368,
      "byteOffset": 253048,
      "byteStride": 12,
      "name": "floatBufferViews",
      "target": 34962
    },
    {
      "buffer": 0,
      "byteLength": 76240,
      "byteOffset": 368416,
      "byteStride": 16,
      "name": "floatBufferViews",
      "target": 34962
    }
  ],
  "buffers": [
    {
      "byteLength": 444656,
      "uri": "scene.bin"
    }
  ],
  "extensionsUsed": [
    "KHR_materials_emissive_strength"
  ],
  "images": [
    {
      "uri": "textures/light_baseColor.png"
    },
    {
      "uri": "textures/light_emissive.png"
    },
    {
      "uri": "textures/candlestick_baseColor.png"
    },
    {
      "uri": "textures/candlestick_metallicRoughness.png"
    },
    {
      "uri": "textures/candlestick_emissive.png"
    },
    {
      "uri": "textures/candlestick_normal.png"
    },
    {
      "uri": "textures/candel_baseColor.png"
    },
    {
      "uri": "textures/candel_normal.png"
    }
  ],
  "materials": [
    {
      "alphaCutoff": 0.3459058160939157,
      "alphaMode": "MASK",
      "doubleSided": true,
      "emissiveFactor": [
        1.0,
        1.0,
        1.0
      ],
      "emissiveTexture": {
        "index": 1
      },
      "extensions": {
        "KHR_materials_emissive_strength": {
          "emissiveStrength": 2.9104850605258985
        }
      },
      "name": "light",
      "pbrMetallicRoughness": {
        "baseColorTexture": {
          "index": 0
        },
        "metallicFactor": 0.0,
        "roughnessFactor": 0.0
      }
    },
    {
      "doubleSided": true,
      "emissiveFactor": [
        1.0,
        1.0,
        1.0
      ],
      "emissiveTexture": {
        "index": 4
      },
      "extensions": {
        "KHR_materials_emissive_strength": {
          "emissiveStrength": 10.0
        }
      },
      "name": "candlestick",
      "normalTexture": {
        "index": 5
      },
      "pbrMetallicRoughness": {
        "baseColorTexture": {
          "index": 2
        },
        "metallicRoughnessTexture": {
          "index": 3
        },
        "roughnessFactor": 0.3
      }
    },
    {
      "doubleSided": true,
      "name": "candel",
      "normalTexture": {
        "index": 7
      },
      "pbrMetallicRoughness": {
        "baseColorTexture": {
          "index": 6
        },
        "metallicFactor": 0.0,
        "roughnessFactor": 0.15
      }
    }
  ],
  "meshes": [
    {
      "name": "Object_0",
      "primitives": [
        {
          "attributes": {
            "NORMAL": 1,
            "POSITION": 0,
            "TEXCOORD_0": 2,
            "TEXCOORD_1": 3
          },
          "indices": 4,
          "material": 0,
          "mode": 4
        }
      ]
    },
    {
      "name": "Object_1",
      "primitives": [
        {
          "attributes": {
            "NORMAL": 6,
            "POSITION": 5,
            "TANGENT": 7,
            "TEXCOORD_0": 8,
            "TEXCOORD_1": 9,
            "TEXCOORD_2": 10,
            "TEXCOORD_3": 11,
            "TEXCOORD_4": 12
          },
          "indices": 13,
          "material": 1,
          "mode": 4
        }
      ]
    },
    {
      "name": "Object_2",
      "primitives": [
        {
          "attributes": {
            "NORMAL": 15,
            "POSITION": 14,
            "TANGENT": 16,
            "TEXCOORD_0": 17,
            "TEXCOORD_1": 18
          },
          "indices": 19,
          "material": 2,
          "mode": 4
        }
      ]
    }
  ],
  "nodes": [
    {
      "children": [
        1
      ],
      "matrix": [
        1.0,
        0.0,
        0.0,
        0.0,
        0.0,
        2.220446049250313e-16,
        -1.0,
        0.0,
        0.0,
        1.0,
        2.220446049250313e-16,
        0.0,
        0.0,
        0.0,
        0.0,
        1.0
      ],
      "name": "Sketchfab_model"
    },
    {
      "children": [
        2
      ],
      "name": "root"
    },
    {
      "children": [
        3,
        5,
        7
      ],
      "matrix": [
        1.0,
        0.0,
        0.0,
        0.0,
        0.0,
        2.220446049250313e-16,
        1.0,
        0.0,
        0.0,
        -1.0,
        2.220446049250313e-16,
        0.0,
        0.0,
        0.0,
        0.0,
        1.0
      ],
      "name": "GLTF_SceneRootNode"
    },
    {
      "children": [
        4
      ],
      "matrix": [
        0.7558931933737217,
        0.0,
        0.11112270085931965,
        0.0,
        0.0,
        1.0,
        0.0,
        0.0,
        -0.14544522554888192,
        0.0,
        0.9893663054526544,
        0.0,
        0.0020419349893927574,
        6.853602886199951,
        -0.01547479908913374,
        1.0
      ],
      "name": "Light_0"
    },
    {
      "mesh": 0,
      "name": "Object_4"
    },
    {
      "children": [
        6
      ],
      "matrix": [
        1.0,
        0.0,
        0.0,
        0.0,
        0.0,
        1.0,
        0.0,
        0.0,
        0.0,
        0.0,
        1.0,
        0.0,
        0.0,
        1.2589921951293945,
        -0.022078875452280045,
        1.0
      ],
      "name": "candlestick_1"
    },
    {
      "mesh": 1,
      "name": "Object_6"
    },
    {
      "children": [
        8
      ],
      "matrix": [
        1.0,
        0.0,
        0.0,
        0.0,
        0.0,
        1.0,
        0.0,
        0.0,
        0.0,
        0.0,
        1.0,
        0.0,
        0.007552028633654118,
        4.216368198394775,
        -0.01875559240579605,
        1.0
      ],
      "name": "Candel_2"
    },
    {
      "mesh": 2,
      "name": "Object_8"
    }
  ],
  "samplers": [
    {
      "magFilter": 9729,
      "minFilter": 9987,
      "wrapS": 10497,
      "wrapT": 10497
    }
  ],
  "scene": 0,
  "scenes": [
    {
      "name": "Sketchfab_Scene",
      "nodes": [
        0
      ]
    }
  ],
  "textures": [
    {
      "sampler": 0,
      "source": 0
    },
    {
      "sampler": 0,
      "source": 1
    },
    {
      "sampler": 0,
      "source": 2
    },
    {
      "sampler": 0,
      "source": 3
    },
    {
      "sampler": 0,
      "source": 4
    },
    {
      "sampler": 0,
      "source": 5
    },
    {
      "sampler": 0,
      "source": 6
    },
    {
      "sampler": 0,
      "source": 7
    }
  ]
}
